<svg viewBox="0 0 900 820" width="225" height="205" xmlns="http://www.w3.org/2000/svg"><path d="M437 0h19l19 4 19 7 19 10 16 10 13 10 13 12 10 10 9 11 13 18 12 20 13 25 8 16 9 13 9 12 11 8 16 9 21 9 15 4 23 3 15-1 2-1h6l-2 5-8 8-9 14-8 17-3 12-1 7h-4l-8-10-14-15-7-7-18-13-8-6-2-1 2 6 9 20 7 13 11 16 12 12 12 9 1 3-1 1-13 2-15 6-16 11 3 23 5 45 6 56 5 38 6 36 8 41 10 36 8 22 9 20 10 19 11 17 13 17 11 12 12 12 15 11 22 13 22 12 15 7 18 5 21 2 5 3 1 1v5l-7 9-10 9-11 5-15 4-22 3-40 3-65 3-33 4-19 3-15 4-6 1-9-7-16-9-10-4-17-4-13-1h-17l-21 2-17 4-4 2-4-1-17-17-16-11-15-8-17-6-20-3h-21l-26 3-21 5-24 8-9 5h-2v-2l-3-1-2-5-5-2-7-2-13-1-18 2-22 6-23 10-20 11-16 11-15 12-4 1-13-10-11-9-13-9-13-8-23-11-11-4-20-4H64l-28 5-17 5-10 4-4-1-5-6 1-4 11-13 10-13 13-18 14-22 14-24 12-21 7-14 10-19 19-39 15-33 11-25 10-24 24-58 6-16 19-49 11-29 16-42 19-50 12-31 15-37 13-30 17-35 14-25 16-24 11-14 9-10 7-8 12-11 18-13 17-9 17-6z" fill="#070707"/><path d="M594 137h4l6 16-1 3-3-5v-2l-10-1-1 4-2 3 2 11 1 3v21l-3 13-1 13 5 15-5-2-17-17-8-7-10-8h-6l1 6 16 17 10 10 8 7 2 1h8l-3 5-4 1-1 4-3 1-3 11-1 13-3 16-2 7h-2l-1 15h-1l-1-30-4-17-8-16-6-8-7-6-9-4h-13l-9 4-9 7-9 13-7 15-4 14-2 12v27l4 20 8 17 8 10 8 6 6 2h13l10-5 8-7h3l-1 11-2 4v3h-2l-2 10-2 6-3 17-4 10v14l4 2 5-3 3-3 4-1 3-3 2 1-8 8-5 3h-2l-1 3-11 6-12 7-7 2v2l-11 2v2l-26 7h-5v2l-11 2h-39l-8-1v-2h-9l-4-1v-2l-7-1-8-3-15-8-10-8-11-11-5-7-6-12-5 1 1 10 6 18 5 12 8 16 8 14 11 13 14 14 16 10 13 6 14 4h23l11-2 16-5 13-7 12-8 16-13 13-13 2-3h2l-2 5h-2l-2 6-2 4h-2l-1 4-3 4-2 8-4 6-1 10-1 1-2 19-2 22v10l-2 8-2 13-2 4-3 13-5 9-2 5h-2l-1 6-5 10-5 1h-27l-7-1-22 2-5 2-9 2h-4v2l-16 5-17 9-8 6h-2l2-17 5-36 4-29 1-48 1-10h-3l-2 11-1 9-1 21-4 26-6 38-5 24-9 25-1 2h-2l-1 5-2 2h-7l-4-1h-32l-15 6h-3v2h-4v2l-10 4-12 7-11 9-5 7h-2l-2 4-2 1v-9l7-44 5-42 9-57 9-52 2-11-3 3-8 28-10 50-4 18-3 18-1 11h-2l-1 12-6 33-2 16-6 31-3 3-7-6-18-11-3-2-13-4-20-7-16-3h-14l-18 3-20 6-25 10-15 7-13 7-2-1 8-10 11-12 9-13 9-15 11-22 16-27 15-27 12-21 8-16 9-19 9-25 12-28 6-16 8-22 10-29 5-13 3-11 6-13 11-28 5-13 6-15 5-14 4-10 13-33 10-24 8-19 12-30 5-16 8-15 13-28 8-17 5-1 10 4 21 6 32 6 32 3h57l39-4 37-7 4-2 14-3 25-9 18-9h2z" fill="#F9F9F9"/><path d="M590 148h8l4 4 1 2 2-1 12 31 6 15 3 9 5 12 11 46 8 44 4 30 4 50 2 33 4 30 3 14 7 43 9 44 10 35 7 21 8 19 11 20 14 20 12 16 9 11 9 10 16 16 13 10 15 9 25 12 20 8 21 6 15 3 3 3-6 1-28-1-50-9-53-10-23-5-13-2h-20l-12 3-6 2-5-1-8-14-7-14-11-30-7-23-6-27-5-38-4-36-1-7-1-26-1-55-1-20 1 110 3 38 5 42 5 30 7 25 9 27 2 4-1 3-17-13-14-8-17-6-17-3h-10l-18 2-21 7-3-9-2-12-2-21-1-21v-29l4-39 7-50 3-21v-5l-4 16-7 36-7 46-1 11v59l1 20-4-2-13-13-16-10-10-5-21-6-24-4-22-1v-1l24-2 5 1h28l4-1 3-7 3-8h2l1-5 5-9 4-15 2-6 1-11 2-9v-10l4-38 1-2 1-9 5-8 2-7 4-7h2l1-4 3-6h2l2-5-20 20-9 7-13 9-8 5-11 5-16 5-8 1h-23l-17-5-17-9-11-8-14-14-10-12-12-21-7-16-6-16-3-12v-5l2-2 5 1 8 15 11 12 8 7 11 7 9 5 14 4v2l13 1v2h47l11-1v-2l23-6 8-1v-2l6-2h5v-2l16-8 11-7 3-1 5-5 5-3 4-5-4 4h-5l-2 5-5 1-5-4 1-4v-9l4-10 4-20 2-9 2-4h2l-1-5 2-2 2-11-5 3-7 6-9 4h-13l-9-4-8-7-7-10-7-15-4-20v-27l4-20 5-13 7-13 9-11 10-7 6-2h13l9 4 8 7 7 9 7 15 4 17 1 18 1-3h2l2-15 2-10 1-11 4-11 3-2 1-3 5-3v-2h-6l-7-5-23-23-8-10 1-5h6l11 9 16 15 7 6 4 4 2 1-4-7-1-5-1-6 4-26v-18l-3-11 1-4z" fill="#9E9E9E"/><path d="M405 670h21l33 6 21 6 15 8 11 9 9 8 11 15 4 6 1 3 5-1 9-6 7-2 8-1h28l14 3 15 6 15 8 9 7v2l5 2 6 7 10 8 7 6 2 1v-2l8-4 18-4 8-1h19l36 2 44 8 32 7 19 3 21 2v3h-4v2l-10 4-14 5-12 2-40 1-66 1-38 3-28 8v-10l3-12 3-6v-6l-5 3-5 11-3 18-5-1-15-7-14-7-9-3-25-4h-21l-20 3-12 3-5 1-1-2 2-36 3-16h-3l-4 11-1 11-1 26-4-1-10-9-16-12-9-5-12-5-13-5-18-3h-16l-16 1-18 3-30 9-13 5h-3l2-9 1-6v-22l-1-2h-3l-2 21-4 16-5-1-14-5-11-3h-16l-15 3-20 7-15 8h-3v2l-11 8-13 11-7 6h-2l2-16-4-1-7 18-3 7-4-2-12-11-14-11-13-9-16-8-19-5-17-3-22-2-21 1-21 3-10 2 1-3 16-8 21-9 15-5 14-3 7-1h22l17 4 21 8 29 14 15 8 4 2h6l6-5 10-15 11-12 10-7 12-5 18-5 12-2h25l13 3h4l11-18 8-10 11-9 17-9 15-5z" fill="#666"/><path d="m628 359 4 4 2 9 3 8v6h2l3 6v12l4 15 2 5 2 9 1 3 1 7 2 15 3 9 2 12 2 4v7l2 4 2 11 4 15 4 10 5 19 2 5 3 14 3 7 3 1 8 26 9 22 8 16 7 12 12 17 12 16 9 11 9 10 16 16 13 10 15 9 25 12 20 8 21 6 15 3 3 3-6 1-28-1-50-9-53-10-23-5-13-2h-20l-12 3-6 2-5-1-8-14-7-14-11-30-7-23-6-27-5-38-4-36-1-7-1-26-1-55-1-20 1 110 3 38 1 9v10h-1l-3-28-3-41-1-82-1-26-2-19 2-35 2-11 2-5 1-8 1-5z" fill="#797979"/><path d="m522 718 4 4 4 6 1 3 5-1 9-6 7-2 8-1h28l14 3 15 6 15 8 9 7v2l5 2 6 7 10 8 7 6 2 1v-2l8-4 18-4 8-1h19l36 2 44 8 32 7 19 3 21 2v3h-4v2l-10 4-14 5-12 2-40 1-66 1-38 3-28 8v-10l3-12 3-6v-6l-5 3-5 11-3 18-5-1-15-7-14-7-9-3-25-4h-21l-20 3-12 3-5 1-1-2 2-36 3-16h-3l-4 11-1 11-1 26-4-1-1-2 3-1-2-9 1-2-5-1-1-3v-17l-1-13v-17l5-2z" fill="#666"/><path d="M430 15h20l26 3 16 5 12 6 16 13 17 17 8 7 12 13 7 8-2 1v2l-19 5-25 6-27 4-38 3h-53l-36-3-19-3-10-1-9-2 2-5 12-16 14-15 10-10 17-13 11-8 10-6 16-7 9-3z" fill="#F9F9F9"/><path d="m574 95 4 1 18 27v2l-16 9-14 6-24 8-29 7-29 5-33 3h-47l-27-2-27-4-34-8-13-4-1-3 17-35 1-2 7 1 20 6 24 4 36 3h41l31-2 25-3 26-5 23-6z" fill="#515151"/><path d="m326 422 5 1 8 15 11 12 8 7 11 7 9 5 14 4v2l13 1v2h47l11-1v-2l23-6 8-1v-2l6-2h5v-2l16-8 11-7 3-1 5-5 5-3 4-4h3l2-4 11-8h3l-2 9-10 19-12 19-10 13-2 4-5 5-7 8-11 11-9 7-13 9-8 5-11 5-16 5-8 1h-23l-17-5-17-9-11-8-14-14-10-12-12-21-7-16-6-16-3-12v-5z" fill="#080808"/><path d="M295 719h25l13 3h5l2 10-2 13-3 12-9 2-15-4h-16l-15 3-20 7-15 8h-3v2l-11 8-13 11-7 6h-2l2-16-4-1-7 18-3 7-4-2-12-11-14-11-13-9-16-8-19-5-17-3-22-2-21 1-21 3-10 2 1-3 16-8 21-9 15-5 14-3 7-1h22l17 4 21 8 29 14 15 8 4 2h6l6-5 10-15 11-12 10-7 12-5 18-5zM696 626l5 1 5 5 5 9 11 18 9 12 7 9v2h2l4 6 3 3h3l9 11 20 20 13 10 15 9 25 12 20 8 21 6 15 3 3 3-6 1-28-1-50-9-53-10-23-5-13-2v-1h12l-5-4v-2l-4-1-3-5-2-3-2-12-5-19-1-6 2-10-1-7-3-5-2-5-3-7-2-7-4-16-1-8z" fill="#515151"/><path d="M520 236h12l11 8 2 2v3l-11 6-6 7-4 10v17l5 9 3 2 1 3 7 5 6 2h12l-1 14h-2l-1 7-6 18h-2l-2 6-9 10-8 5-3 1h-13l-8-5-7-8-8-17-3-14-1-8v-22l1-10 7-23 10-17 6-5 1-2zM373 254l13 1 10 7 5 6v2l-9 2-8 6-5 8-2 6v16l5 9 5 5 6 4 3 1h11l-1 5-8 16-6 9-8 8-12 6-4 1h-13l-7-3-9-7-8-16-3-10v-27l3-14 6-14 10-14 7-6 13-6z" fill="#F9F9F9"/><path d="M705 760h19l36 2 44 8 32 7 19 3 21 2v3h-4v2l-10 4-14 5-12 2-40 1-66 1-25 2h-12v-1l5-1-2-1v-2l-3-1v-3l-2-1 1-12 3-8 1-3 7-6-6-1v-1zM102 734h22l17 4 21 8 29 14 15 8 9 3-1 2-5 2-4 6h-2l-2 6-5 12-2 7-8-6-11-10-16-12-16-9-15-5-26-5-22-2-21 1-21 3-10 2 1-3 16-8 21-9 15-5 14-3z" fill="#515151"/><path d="M518 229h13l9 4 8 7 7 9 7 15 2 13 1 6v28l-1 12-3 8-4 12-3 8h-2l-1 5h-2l-2 4-7 9-6 5-9 4h-13l-9-4-8-7-7-10-7-15-4-20v-27l4-20 5-13 7-13 9-11 10-7zm2 7-11 4-5 5-7 10-6 12-6 20-1 10v22l3 16 2 8 8 16 8 9 6 3h13l10-5 8-8 4-7v-2h2l7-21v-4h2l1-14h-12l-9-4-4-3-1-3-5-5-3-6v-17l4-10 7-8 10-5-1-4-9-7-3-2z" fill="#111"/><path d="M474 682h6l15 8 11 9 9 8 7 9-1 5-5 1 1 22 1 16v9l2 3 3 1 2 14-1-2-5-1-16-13-13-9-15-6-13-5-18-3-1-3 3-2h5v-2l6-1 2-6-1-6 4-10 4-7h2l1-3h2l1-3 9-5 3-1 1-4-1-6-5-2-5-3z" fill="#797979"/><path d="M366 248h17l9 3 5 3v2l4 2 7 9 7 16 2 8v24l-5 20-8 16-8 11-9 8-10 6-10 3h-11l-11-4-10-9-6-7-4-8-4-14v-28l4-17 5-11 7-11 9-10 10-8zm7 6-9 2-13 7-8 9-7 11-6 15-2 11v27l4 13 8 14 11 8 4 1h13l11-4 8-6 7-7 9-16 4-8v-4h-11l-8-4-5-5-5-8-1-2v-16l4-9 6-8 8-4 6-1-2-5-8-7-5-3z" fill="#111"/><path d="m611 729 6 1 15 8 9 7v2l5 2 6 7 10 8 7 6 2 1v-2l8-4 13-3h12l-6 7-2 1-2 9-1 1-2 12 3 1v3l5 2 4 3-10 1-27 9h-2v-10l3-12 3-6v-6l-5 3-5 11-3 18-5-1-15-7-14-7-11-4-3-5h2l2-9v-6l-2-6 3-4 2-12 3-3h2l-1-5h-3l-1-5-5-3z" fill="#797979"/><path d="m633 512 3 1 2 12 3 4 1 9v6l2 10v20l2 5 2 21v3l1 6v16l2 6-1 6h2v8l1 2v9l2 1v4l2 7v6h2l4 20 2 9v4h2l2 11 2 3 2 6 2 4v3l-6-1-5-1-10-25-10-30-7-29-5-34-4-37v-8l3 4v-45l1-8zM679 591l5 1 5 8 6 9 3 6v2h2l3 8 1 4-5-2h-3l-1 3 3 16 2 7 3 9 3 7 1 4 2 2 2 10-2 11 5 20 2 6 1 9 5 8 3 1v2l4 2 3 3-32-1v-1l11-1-3-3-5-4-5-5-3-9-2-11-4-15-1-8-2-13-3-14-1-6v-9l-3-14-1-14-1-5v-17z" fill="#666"/><path d="m384 694 5 1 4 5 4 2 7 1 1 1-1 7-5 21-1 10 8 4v4l-15 3-27 8-13 5h-3l2-9 1-6v-26l-2-1 6-2v-2l3-2 1-3h2l-1-3h2l1-4 11-7h2v-2l6-3z" fill="#797979"/><path d="M590 148h8l4 4 1 2 2-1 12 31v4l-3-1-4-8-2-7h-2v-3h-2v-2h-2l-3-4-3-1 3 21-1 9-1 10-2 8-1 10 1 12 1 7-2 10v18l-5 13-7 12h-2l-1 5-6 13-2 9h-2v5h-2l1 3-5 6h-1v-9l1-1 1-12v-28l-1-11 2 4 1 5 1 18 1-3h2l2-15 2-10 1-11 4-11 3-2 1-3 5-3v-2h-6l-7-5-23-23-8-10 1-5h6l11 9 16 15 7 6 4 4 2 1-4-7-1-5-1-6 4-26v-18l-3-11 1-4z" fill="#B4B4B4"/><path d="m522 718 4 4 4 6 1 3 5-1 9-6 7-2h26l-4 2-4 4h-5l3 16-1 3 1 6-7 8-1 2h-2l-1 3h-2l-2 5 1 5-4 1v-2l-3 2h-3l2 8 2 5-12 3-5 1-1-2 2-36 3-16h-3l-4 11-1 11-1 26-4-1-1-2 3-1-2-9 1-2-5-1-1-3v-17l-1-13v-17l5-2z" fill="#676767"/><path d="m538 538 1 4-8 47-3 21-1 11v59l1 20-4-2-13-13-16-10-10-5-21-6-24-4-22-1v-1h25l29 3 10 3 12 5 5-2 2-4 1-7 2-4 3-3 1-2 1-13 2-6 3-16 4-9 3-2h3v3h2l5-29v-5h-3v-2h-2v-9l2-4h4l1 2 2-6z" fill="#767676"/><path d="M524 462h2l-1 12-5 6-17 8h-4l-3-7v-4l-4 2 1 5 5 4v2l-9 2-6 1-2-1-1-9-9 3-17 2 1 4h5v2h6l2-5 4 1 5-1 3 2v3l-9 2h-6v2l-27 2-26-2-8-2-1-2-12-2-20-7-10-7-1-4 9 3h2l-8-5v-2l-4-1-1-4 5 1 8 6 10 3 6 3 9 2 2 2 4-1 27 3 5 2 2-1h8l4 5 1 7h2v-7l1-2h-2l1-3 30-7h2v-2l10-2 4-1v2l3 1 1 10h2l-1-10-2-2v-3l5-2h3v-2l9-1v-2z" fill="#727272"/><path d="m610 666 3 1 5 9 4 8v2h2l6 7 6 5-1 4 5 2 2 4-1-8 2 3 10 30 2 4-1 3-17-13-14-8-17-6-17-3h-10l-18 2-21 7-3-9 1-4 1 2 8-4 14-3 10-1h32l5 1 1-10v-24z" fill="#787878"/><path d="m636 181 4 2 8 8 14 9 15 7 19 6 16 2h19l4-1-2 4-9 10-8 13-6 15-4-2-7-8-7-7-11-9-17-12-11-7-6-7-11-21z" fill="#515151"/><path d="m809 773 13 1 26 5 28 3v3h-4v2l-10 4-14 5-12 2h-79l-7-3 1-3 5-1 3 1 1 2 2-1 1-3h5v-5l3-2 7-1h10l2 1v-2l14-1 3-1 6 1 6-1-2-3-8-2z" fill="#666"/><path d="m210 672 4 1 3 7v5l1 4-1 16-2 4-2 18 3-14h1l-1 10-6 31-3 3-3-2 1-2 3 2 1-10-10 2-2-1v-2l-4-2-7-10-1-5 1-7 7-14 6-14 4-11 6-8z" fill="#B6B6B6"/><path d="M560 721h28v1l-5 1v2h6l8 3v5l3 2h-2v2l-6 3-7 1-6 4-2 3-1 7 11-6h3l-4 6-5 3-7 8-2 4 3 10 1 2 3 1v2h10v1l-21 1-15 2h-5l-1-3-3-1v-8l6-2h3l1-3-2-1 3-5 3-3h2l2-4 3-4h2l-1-10 1-3-2-14h5l2-4 2-1-14-1zM634 195l4 4 9 17 10 24 12 25 6 10 8 10 8 7v2l-12 5-16 10h-2l-5-30-9-38-6-24-7-20z" fill="#515151"/><path d="m332 479 5 1 10 15 8 11 3 4v2h2l7 8 8 7 16 8 19 7 13 2h23l14-1 17-5 7-3h3l-1 4-5 4-12 5-15 4-7 1h-22l-17-3-18-5-16-10-11-9-7-8-9-12-12-19-3-6z" fill="#1C1C1C"/><path d="M262 727h6l-2 1v2l-7 3-9 3v2h-2l-2 4-2 5-1 4v5l-6 10-1 4 5-1 3-1 8-2v3l-7 4h-3v2l-11 8-13 11-7 6h-2l2-16-4-1-7 18-3 7-3-1 2-10 7-16 8-8 7-4 6-7 8-12 11-12 10-7z" fill="#787878"/><path d="m590 350 4 1 1 3-8 8-6 8-5 5-6 9-1 2 6-3 7-8 11-11 2 3 3 3-2 4-8 10-9 14-1 2 5-2 8-10 7-9 3-2-3 9-7 11-7 7-2 1h-11l-8-5v-2h-2l-5-7-1-4v-8l6-11 10-9 2-1-2 5-8 11-4 7-1 5 5-1 2-5 8-12 9-10z" fill="#F8F8F8"/><path d="m432 672 11 1 20 4v1h-8l7 3v2l4 1-1 7-12 7-6 4-11 5-7-4-6-7-1-7h-2l-2-6 2-5 3-2 8-2z" fill="#515151"/><path d="M283 721h6l2 2-7 4-7 2-4 4h-2v2l-11 4-2 4 3 2 4-3 5 1-2 4-4 6h-2l3 3 11-1 4 1v2l-20 7-6 3-3-1-9 2-2 2-5-1 3-7 4-7v-8l2-2v-4l4-4h2v-2l9-4 4-2h3l-1-4z" fill="#666"/><path d="m528 492 1 2-6 12-2 7-5 12-2 5-1 9-1 1-2 19-1 4v9l-3 24-2 9-6 26-5 15-1 4-3 3-2 7-1 1h-8l-7-2h-10v-2h14l4-1 3-7 3-8h2l1-5 5-9 4-15 2-6 1-11 2-9v-10l4-38 1-2 1-9 5-8 2-7 4-7h2l1-4 3-6h2z" fill="#B8B8B8"/><path d="M834 778h8l23 3 11 1v3h-4v2l-10 4-14 5-12 2h-55v-1l9-1h10l2-5 4-1 1-3 9 1 4-2 10-1 6-2v-4z" fill="#777"/><path d="M524 462h2l-1 12-5 6-17 8h-4l-3-7v-4l-4 2 1 5 5 4v2l-9 2-6 1-2-1-1-9-9 3-17 2 1 4h5v2h6l2-5 4 1 5-1 3 2v3l-17 3-10 1-2-1v-7l1-2h-2l1-3 30-7h2v-2l10-2 4-1v2l3 1 1 10h2l-1-10-2-2v-3l5-2h3v-2l9-1v-2z" fill="#F7F7F7"/><path d="m342 638 5 1 1 7v18l-2 8-5 16v6l-3 7h-3l-1 2-8 1-2-4h-2l-1-6 8-24 2-1 6-13 1-8z" fill="#B8B8B8"/><path d="m554 731 7 1 1 5-3 3h-6l-3 12 1 4-2 2-4 16-5 5-1 6h2l-1 6-6 3-4-1 1-25 2-17 4-12h3l5-6h6z" fill="#787878"/><path d="m554 352 2 2-3 8 1 5-1 2 2 1 4-2 4-4h2l-1 3-4 4-4 8-1 7-5-1-3 7h-2v6l-3 9-7 22v5l4 2 1 3-3 3-4 1-5-4 1-4v-9l4-10 4-20 2-9 2-4h2l-1-5 2-2 2-11-3-1 6-8h2v-2z" fill="#B6B6B6"/><path d="M692 762h12l-6 7-2 1-2 9-1 1-2 12 3 1v3l5 2 4 3-10 1-27 9h-2v-10l1-6 4-2 3-1v-2h7l1-1h5l-1-3 2-4 1-12 4-2v-4l-3-1z" fill="#666"/><path d="M360 212h8v8l-25 11-13 6-17 8h-6l-2-2 1-4 13-9 16-8 17-7z" fill="#0F0F0F"/><path d="m522 718 4 4 4 6 1 3h2l-1 7 4 1v7h-1v-6h-3l-4 11-1 11-1 26-4-1-1-2 3-1-2-9 1-2-5-1-1-3v-17l-1-13v-17l5-2z" fill="#515151"/><path d="M545 196h6l11 9 16 15 7 6 3 3 1 6-2 3h-7l-5-4-23-23-8-10z" fill="#0F0F0F"/><path d="M621 396h2l1 49 2 29 1 61 1 34h-1l-1-7-1-26-1-55-1-20 1 110 3 38 1 9v10h-1l-3-28-3-41-1-114v-40z" fill="#575757"/><path d="M569 708h23l11 2h11l1-1h10l9 4 10 7 2 2 2-3 6 16 1 5-9-6-12-9-16-8-16-5-13-2h-10l-18 2-21 7-1-5 4 1 1-1 1-3 4 1 1 1 12-4z" fill="#646464"/><path d="M684 764h7v4l-3 2-1 12-2 5v2h-5l-1 2-7-1v2l-4 3-1 5h-1v-8l4-9v-6h-3v-2l5-2-1-4 8-4z" fill="#777"/><path d="M646 655h2l2 5 1 2 2 9 2 4 2 10 2 4 4 16 1 7 1 2h-2l-2 3-2-3 1 6-2-2-11-31 1-4 1-2-1-5-2-1v-15h-2l1-4z" fill="#515151"/><path d="M524 462h2l-1 12-5 6-18 8v-12l-2-2v-3l5-2h3v-2l9-1v-2z" fill="#F6F6F6"/><path d="m360 474 9 3 1 2 6 2 1 2 4 1v2l7-1-1-5 8 1v2l-3 2v3h6v2l9-1 7 5 2-3h3l2-1 5 2h3l1-3 2 1-2 4 1 1 1 2-5 1-13-1-10-2-1-1-12-2-20-7-10-7z" fill="#F1F1F1"/><path d="m511 711 5 1h3l3 4-1 5-5 1 1 22 1 16v9l2 3 3 1 1 10-1-2-5-1-3-8-1-5-1-27-1-17h-2v-11z" fill="#666"/><path d="m588 344 3 1-2 5-4 4h-2l-2 5-10 13-8 13-5 1v-5l10-16 4-5h2l2-5 6-5 4-5z" fill="#1B1B1B"/><path d="M547 505h2l-1 15-7 48-5 40-2 22v19l2 39v10h-1l-2-21-1-21v-29l4-39 7-50 3-21v-10z" fill="#606060"/><path d="M317 380h5v4l-7 4-20 11-7 4-4 3-3-2v-3l15-10 16-8z" fill="#232323"/><path d="m360 737 1 4-1 10-1 4 6 1 3 1-1 3-16 6h-3l1-4 2-4 2-15 2-3h3v-2z" fill="#989898"/><path d="M97 752h16l12 6 1 2 12 4v1l-10-1-26-5-9-2-6-1v-1l7-1z" fill="#656565"/><path d="m358 465 5 1 8 6 10 3 6 3 9 2 1 3-1 4-3 1-1-4 3-1v-2l-8-1 2 6h-8v-2l-5-1-1-2-6-2 3-1-5-4-4-2v-2l-4-1z" fill="#4C4C4C"/><path d="M367 545h3l-1 38h-1l-2-14-3 28-6 34h-1l1-13 4-23 1-9 1-21 2-17z" fill="#737373"/><path d="m303 374 3 1-1 6-21 13-6 5h-3v-5l7-6 14-9z" fill="#212121"/><path d="m594 356 4 1-6 9-20 20h-3l2-6 8-10h2l2-4z" fill="#242424"/><path d="M296 367h5l-1 4-14 10-15 10h-3l1-4 12-10z" fill="#1C1C1C"/><path d="m538 538 1 4-8 47-3 21h-1v-10l4-25v-5h-3v-2h-2v-9l2-4h4l1 2 2-6z" fill="#6D6D6D"/><path d="M600 368h1v6l-3 6-10 13-6 7h-4l2-6 13-18h2l2-4z" fill="#2A2A2A"/><path d="m394 282 7 1 3 2v7l-2 3-9 1-5-5v-4h2l2-4z" fill="#F5F5F5"/><path d="M541 263h6l4 5v6l-6 3h-6l-3-3v-6z" fill="#F3F3F3"/><path d="M476 483h4l1 9 4 2h-5v-3l-7-1h-4l-3 4h-6v-2l-6 1v-5l7-2 10-1z" fill="#6A6A6A"/><path d="M524 462h2l-1 12-3-3-4 4h-2l-2 4h-7l1-5 4-5-4-2 9-1v-2z" fill="#6B6B6B"/><path d="m216 770 4 1-5 4h-2l-1 3-4 2-9 24-2 4-3-1 2-10 7-16 8-8z" fill="#868686"/><path d="M622 388h1v8h-2v81h-1l-1-26-2-19 2-35 1-8z" fill="#787878"/><path d="M569 708h23l11 2 16 5 4 3-5-1-16-5-13-2h-10l-18 2-21 7-1-5 4 1 1-1 1-3 4 1 1 1 12-4z" fill="#515151"/><path d="m403 489 5 1 6 4 2-3h3l2-1 5 2h3l1-3 2 1-2 4 1 1 1 2-5 1-13-1-10-2-3-2v-3z" fill="#F6F6F6"/><path d="M226 782h2l-1 4-9 8-7 6h-2l1-8 1-3h2v-5l1 2 9-2h3z" fill="#9C9C9C"/><path d="M436 485h8l4 5 1 7 2 1h-16l-2-4 1-2 6 1 5-1v-4l-7 2-4-1z" fill="#F2F2F2"/><path d="M552 722h19l-2 2-9 3-8 1-7 2h-5l3-5z" fill="#757575"/><path d="M343 729h2v19l-4 16-5-1 1-5 2-2 3-11v-14z" fill="#787878"/><path d="M679 799h4v2l5 1v2l-20 6h-3v-8l8 1h2z" fill="#757575"/><path d="m857 782 18 1v2h-3v2l-10 4-7 1 2-6v-1z" fill="#A1A1A1"/><path d="m390 299 6 1 3 2v5l-4 4-6-1-1-1v-8z" fill="#F4F4F4"/><path d="M547 505h2l-1 15-7 48-2 14h-1v-8l8-57v-10z" fill="#636363"/><path d="M399 483h8l21 2 2 1v2h-10l-5-1-1 3-1-3h-14l-2-3z" fill="#F2F2F2"/><path d="m402 486 11 1 1 2 1-2h5l1 1 7 1-1 2h-7l-3 3-1-2-2 3-7-5-6-1z" fill="#585858"/><path d="m851 791 6 1-3 2-11 3-7 1h-20l-1-2 19-1 13-2z" fill="#8C8C8C"/><path d="m643 213 3 4 4 16-1 7-1-4h-2l-3-12z" fill="#656565"/><path d="m674 767 2 1 4 5v3l-7 3-2 2-1-4h-3v-2l5-2-1-4z" fill="#646464"/><path d="m432 488 6 1 1-1h6v4l-6 2-5-2 1 6h-6l3-1-4-2 1-2 2-1z" fill="#999"/><path d="m358 465 5 1 8 6 7 3 3 3-1 1h-5l-7-6-9-4z" fill="#F5F5F5"/><path d="m542 281 5 1 1 1v6l-6 2-4-3 1-5z" fill="#F1F1F1"/><path d="m634 195 4 4 6 11-1 11-2-4-7-20z" fill="#5B5B5B"/><path d="M452 483h9v1l-10 2-1 2h2l-1 9h-2l-3-9-2-2-8-1v-1h9l3 1z" fill="#6A6A6A"/><path d="m636 744 5 1v2l5 2 6 7 6 5 2 4-4-2-10-9v-2l-4-1-5-5z" fill="#949494"/><path d="m635 248 3 1 6 27-1 4-3-11v-4h-2l-3-14z" fill="#848484"/><path d="m522 470 2 1-1 6-5 4-4 1 1-7 3-2h2z" fill="#DEDEDE"/><path d="M418 658h25l17 2v2l3 1-10-1-13-2-22-1z" fill="#626262"/><path d="M262 727h6l-2 1v2l-7 3-9 3 1-4z" fill="#707070"/><path d="M456 487h7l-2 6 2-1 2-5 2 1-1 6h-6v-2l-6 1v-5z" fill="#676767"/><path d="M493 477h3l3 8v3l3 1-4 1v-2l-4-2-3-4 1-4z" fill="#545454"/><path d="M307 131h2l-1 8 1 6h-6l-1-3z" fill="#616161"/><path d="m217 703 1 4-5 24h-1l1-12 1-10z" fill="#FAFAFA"/><path d="M123 736h11l13 4v2l-7-1-12-3-5-1z" fill="#5E5E5E"/><path d="m216 770 4 1-5 4h-2l-1 3-4 2-1 2h-2l2-5 4-4z" fill="#9D9D9D"/><path d="m851 791 6 1-3 2-11 3h-5l4-3z" fill="#8B8B8B"/><path d="m875 769 13 1 3 3-6 1-9-2z" fill="#656565"/><path d="m347 670 1 4-6 16h-2l4-16z" fill="#FAFAFA"/><path d="m363 471 5 1 7 6h7l3 1-1 3h-2v-2l-7 1-6-2 3-1-5-4z" fill="#7E7E7E"/><path d="m499 471 4 5v10h-2l-2-10-2-1v-2l-3-1z" fill="#5D5D5D"/><path d="m598 360 2 1-1 10-4-2-2-6z" fill="#B9B9B9"/><path d="M524 462h2l-1 4-8 3-3-1 1-2h2v-2z" fill="#F0F0F0"/><path d="M622 388h1v8h-2v11h-2v-10l1-8z" fill="#707070"/><path d="m203 781 4 2-5 11h-2l1-9z" fill="#8C8C8C"/><path d="M343 729h2v19h-1l-1-7-1-5z" fill="#737373"/><path d="M704 248h7v6l-1 2-4-2-2-3z" fill="#636363"/><path d="M461 486h10l-2 4-3 2-1-5-2 6h-2l1-5z" fill="#A6A6A6"/><path d="m644 673 1 2 4 1 1 7-2 3v-3h-2l-2-6z" fill="#606060"/><path d="M485 480h3v8l-4-1-2-6z" fill="#565656"/><path d="m592 347 3 1v5l-1-2-5 1-7 7v-3l5-5z" fill="#C1C1C1"/><path d="m545 711 4 1-1 4-8 3-1-5 4 1 1-1z" fill="#616161"/><path d="m525 465 1 2-1 7-3-3-4 4-1-3h3v-3l-3-1z" fill="gray"/><path d="m636 181 4 2 3 7 1 4h-2l-6-11z" fill="#5C5C5C"/><path d="m200 787 1 4-1 3h2l-1 5h-3l-3 3 1-5z" fill="#767676"/><path d="M439 488h6v4l-6 2-2-1 1-4z" fill="#707070"/><path d="m416 487 5 1 7 1-1 2h-7l-3 3z" fill="#3F3F3F"/><path d="m618 193 3 1 3 10v3h-2v-5h-2z" fill="#B7B7B7"/><path d="m473 484 4 1-1 4-6 2 1-6z" fill="#7A7A7A"/><path d="M418 485h10l2 1v2h-10l-2-1z" fill="#FAFAFA"/><path d="M538 276h10l-1 6h-6l-1-3-2-1z" fill="#626262"/><path d="m634 195 4 4 4 7-1 2h-3l-4-11z" fill="#515151"/><path d="m396 483 3 1v2l2 1v2l2 1h-5v-2l-6 1-1-4 3 2h2z" fill="#868686"/><path d="M635 620h2l1 8-1 7h-1l-1-5z" fill="#787878"/><path d="M794 770h10l4 1-1 4v-2l-9-1z" fill="#5F5F5F"/><path d="m636 744 5 1v2l5 2v3l-4-1-5-5z" fill="#8D8D8D"/><path d="M643 643h2l2 8-1 4-2-2z" fill="#515151"/><path d="m400 481 19 2v1h-18l-3-2z" fill="#636363"/><path d="M577 352v3l-4 5h-2l-4 3 1-4 6-3z" fill="#C6C6C6"/></svg>