<svg xmlns="http://www.w3.org/2000/svg" width="500" height="500"><path fill="#FEEA0D" d="m237.203-.203 2.905-.017q3.035-.015 6.07-.02c3.022-.01 6.043-.04 9.064-.073C268.413-.383 281.034.698 294 3l3.268.57c2.468.467 4.91.986 7.357 1.555l2.677.62c41.624 10.095 84.062 30.475 114.089 61.646 1.629 1.629 3.33 3.083 5.109 4.546 3.133 2.65 5.795 5.507 8.441 8.637a261 261 0 0 0 4.711 5.383C467.51 117.203 485.42 155.512 495 196l.511 2.097c4.17 17.17 4.899 34.259 4.864 51.84l-.002 3.14c-.038 15.979-.762 31.296-4.373 46.923l-.666 2.96c-10.023 43.6-30.044 82.652-60.213 115.696-1.94 2.143-3.814 4.327-5.683 6.531-2.88 3.303-5.968 6.167-9.313 8.993a118 118 0 0 0-4.187 3.765C401.38 451.643 384.487 462.453 367 472l-2.488 1.358c-30.332 16.206-67.257 26.681-101.715 26.845l-2.905.017q-3.035.014-6.07.02c-3.022.01-6.043.04-9.064.072-17.58.097-34.517-1.955-51.633-6l-3.278-.77c-39.216-9.556-74.32-28.756-104.84-54.964-1.557-1.335-3.119-2.667-4.723-3.947-1.461-1.17-2.877-2.396-4.284-3.631v-2l-1.691-.68C59.448 419.821 46.899 398.272 38 384l-1.237-1.97C19.173 353.775 7.088 321.944 2 289l-.551-3.423c-1.575-10.903-1.788-21.705-1.765-32.711a969 969 0 0 0-.045-9.095c-.058-17.445 1.867-34.33 6.111-51.271l.776-3.147C16.59 149.582 35.749 115.32 62 84l2.05-2.465 1.888-2.222 1.652-1.95C69 76 69 76 71 76l.68-1.691C80.179 59.448 101.728 46.899 116 38l1.97-1.237C153.032 14.936 195.556-.005 237.203-.203"/><path fill="#030300" d="m237.203-.203 2.905-.017q3.035-.015 6.07-.02c3.022-.01 6.043-.04 9.064-.073C268.413-.383 281.034.698 294 3l3.268.57c2.468.467 4.91.986 7.357 1.555l2.677.62c41.624 10.095 84.062 30.475 114.089 61.646 1.629 1.629 3.33 3.083 5.109 4.546 3.133 2.65 5.795 5.507 8.441 8.637a261 261 0 0 0 4.711 5.383C467.51 117.203 485.42 155.512 495 196l.511 2.097c4.17 17.17 4.899 34.259 4.864 51.84l-.002 3.14c-.038 15.979-.762 31.296-4.373 46.923l-.666 2.96c-10.023 43.6-30.044 82.652-60.213 115.696-1.94 2.143-3.814 4.327-5.683 6.531-2.88 3.303-5.968 6.167-9.313 8.993a118 118 0 0 0-4.187 3.765C401.38 451.643 384.487 462.453 367 472l-2.488 1.358c-30.332 16.206-67.257 26.681-101.715 26.845l-2.905.017q-3.035.014-6.07.02c-3.022.01-6.043.04-9.064.072-17.58.097-34.517-1.955-51.633-6l-3.278-.77c-39.216-9.556-74.32-28.756-104.84-54.964-1.557-1.335-3.119-2.667-4.723-3.947-1.461-1.17-2.877-2.396-4.284-3.631v-2l-1.691-.68C59.448 419.821 46.899 398.272 38 384l-1.237-1.97C19.173 353.775 7.088 321.944 2 289l-.551-3.423c-1.575-10.903-1.788-21.705-1.765-32.711a969 969 0 0 0-.045-9.095c-.058-17.445 1.867-34.33 6.111-51.271l.776-3.147C16.59 149.582 35.749 115.32 62 84l2.05-2.465 1.888-2.222 1.652-1.95C69 76 69 76 71 76l.68-1.691C80.179 59.448 101.728 46.899 116 38l1.97-1.237C153.032 14.936 195.556-.005 237.203-.203M141 36q-1.921 1.001-3.852 1.988C124.562 44.45 113.181 52.337 102 61l-2.602 2.008C86.725 73.078 74.866 84.153 65 97a2842 2842 0 0 1-4.437 5.25C51.326 113.574 43.787 126.087 37 139l-1.203 2.27C23.757 164.309 15.904 189.327 12 215l-.39 2.548C6.23 254.978 11.2 292.338 23 328l.674 2.046C31.97 354.723 44.83 377.648 61 398l2.098 2.68C71.515 411.22 80.582 421.402 91 430l2.813 2.473c8.26 7.237 16.985 13.541 26.187 19.527l1.77 1.163C148.217 470.356 178.863 482.084 210 487l3.648.637c60.161 10.074 124.469-6.104 174.143-40.89 3.482-2.486 6.86-5.086 10.209-7.747l2.68-2.098c10.54-8.417 20.722-17.484 29.32-27.902l2.473-2.812c42.014-47.952 60.587-111.121 57.375-174.178-.757-10.851-2.447-21.403-4.848-32.01-.264-1.285-.529-2.57-.8-3.895C477.034 162.2 461.124 128.703 439 102l-1.323-1.61C428.81 89.62 419.757 78.93 409 70l-2.926-2.55A210 210 0 0 0 383 50c-.98-.643-1.96-1.286-2.969-1.95-15.78-10.024-32.281-18.02-49.884-24.275a152 152 0 0 1-5.135-1.978C315.419 17.94 305.084 16.132 295 14l-2.56-.553C243.165 3.11 185 11.129 141 36"/><path fill="#101214" d="m218.196 173.502 2.121.044 2.248-.002c2.451.003 4.902.034 7.353.065q2.55.012 5.099.018c4.473.015 8.946.054 13.42.098 4.564.041 9.13.06 13.694.08q13.435.066 26.869.195a4539 4539 0 0 1-2.819 5.674l-1.585 3.191c-2.36 4.634-4.938 9.13-7.533 13.635-5.001 8.757-9.83 17.596-14.563 26.5a1072 1072 0 0 1-15.586 28.277c-4.602 8.093-8.994 16.292-13.365 24.511a977 977 0 0 1-14.986 27.14c-4.357 7.616-8.426 15.315-12.563 23.072h-76c1.387-4.16 2.433-7.062 4.547-10.703l1.539-2.68 1.664-2.867A977 977 0 0 0 152 284a1011 1011 0 0 1 13.438-24.375c5.568-9.764 10.897-19.646 16.182-29.565a1137 1137 0 0 1 11.658-21.366 898 898 0 0 0 7.117-12.983l1.778-3.304q1.73-3.217 3.45-6.44l1.592-2.96 1.41-2.635L210 178l1.129-2.12c2.301-2.312 3.877-2.35 7.067-2.378M163.723 173.805l2.988.008c3.117.011 6.234.036 9.351.062q3.19.016 6.381.027 7.779.035 15.557.098c-1.317 4.322-2.995 8.077-5.203 12.016l-.953 1.71q-1.013 1.82-2.033 3.634c-1.82 3.24-3.623 6.49-5.428 9.738l-1.116 2.004c-3.61 6.495-7.133 13.035-10.642 19.585-4.23 7.89-8.505 15.749-12.875 23.561-3.414 6.114-6.74 12.275-10.062 18.44a1196 1196 0 0 1-13.125 23.687C129.536 300.821 122.776 313.415 116 326H40c1.5-4.498 2.87-7.86 5.133-11.91l1.918-3.454 2.074-3.699q1.08-1.937 2.156-3.876a5654 5654 0 0 1 4.485-8.052c3.47-6.223 6.916-12.459 10.359-18.697l1.003-1.814a2261 2261 0 0 0 14.06-25.873c5.995-11.187 12.174-22.258 18.483-33.271 1.126-1.994 2.213-4 3.274-6.03 8.17-15.215 22.438-26.432 38.48-32.57 7.536-2.207 14.445-3.036 22.298-2.95"/><path fill="#0F1114" d="M302 175h76c-4.853 9.706-9.706 19.344-14.875 28.875l-1.84 3.405q-6.195 11.438-12.539 22.794a4711 4711 0 0 0-10.558 19.051l-1.038 1.877a1947 1947 0 0 0-10.822 19.81l-1.739 3.234a1636 1636 0 0 0-3.164 5.927C310.794 299.798 299.448 312.316 279 322l-1.88 1.01c-7.122 3.328-15.236 3.27-22.94 3.185l-2.984-.008c-3.107-.011-6.214-.036-9.321-.062q-3.184-.016-6.367-.027A4133 4133 0 0 1 220 326c1.258-3.253 2.633-6.36 4.25-9.45l1.328-2.54 1.422-2.697 1.489-2.833a878 878 0 0 1 10.605-19.468c3.471-6.199 6.85-12.445 10.219-18.7 4.286-7.948 8.655-15.84 13.125-23.687 5.252-9.223 10.308-18.541 15.314-27.9 4.487-8.368 9.107-16.654 13.81-24.903C295.12 187.585 298.56 181.307 302 175"/><path fill="#111214" d="M440.25 177.328c10.26 6.238 17.512 15.049 20.75 26.672 1.176 11.292-.481 21.597-7.25 30.875-3.45 4.086-7.305 7.187-11.75 10.125l-2.437 1.75c-9.29 4.531-20.479 4.581-30.153 1.285-10.692-4.592-17.44-12.343-22.465-22.64-3.404-8.624-3.248-19.037-.007-27.645 5.196-10.948 13.715-18.414 24.886-22.879 9.426-2.585 19.66-1.783 28.426 2.457"/></svg>